<?xml version="1.0" encoding="utf-8"?>
<!-- Generator: Adobe Illustrator 27.2.0, SVG Export Plug-In . SVG Version: 6.00 Build 0)  -->
<svg version="1.1" id="Layer_1" xmlns="http://www.w3.org/2000/svg" xmlns:xlink="http://www.w3.org/1999/xlink" x="0px" y="0px"
	 viewBox="0 0 79.2 79.2" style="enable-background:new 0 0 79.2 79.2;" xml:space="preserve">
<style type="text/css">
	.st0{fill:#FFFFFF;}
</style>
<g>
	<circle class="st0" cx="4.6" cy="4.6" r="2.5"/>
	<circle class="st0" cx="14.6" cy="4.6" r="2.5"/>
	<circle class="st0" cx="24.6" cy="4.6" r="2.5"/>
	<circle class="st0" cx="34.6" cy="4.6" r="2.5"/>
	<circle class="st0" cx="44.6" cy="4.6" r="2.5"/>
	<circle class="st0" cx="54.6" cy="4.6" r="2.5"/>
	<circle class="st0" cx="64.6" cy="4.6" r="2.5"/>
	<circle class="st0" cx="74.6" cy="4.6" r="2.5"/>
	<circle class="st0" cx="4.6" cy="14.6" r="2.5"/>
	<circle class="st0" cx="14.6" cy="14.6" r="2.5"/>
	<circle class="st0" cx="24.6" cy="14.6" r="2.5"/>
	<circle class="st0" cx="34.6" cy="14.6" r="2.5"/>
	<circle class="st0" cx="44.6" cy="14.6" r="2.5"/>
	<circle class="st0" cx="54.6" cy="14.6" r="2.5"/>
	<circle class="st0" cx="64.6" cy="14.6" r="2.5"/>
	<circle class="st0" cx="74.6" cy="14.6" r="2.5"/>
	<circle class="st0" cx="4.6" cy="24.6" r="2.5"/>
	<circle class="st0" cx="14.6" cy="24.6" r="2.5"/>
	<circle class="st0" cx="24.6" cy="24.6" r="2.5"/>
	<circle class="st0" cx="34.6" cy="24.6" r="2.5"/>
	<circle class="st0" cx="44.6" cy="24.6" r="2.5"/>
	<circle class="st0" cx="54.6" cy="24.6" r="2.5"/>
	<circle class="st0" cx="64.6" cy="24.6" r="2.5"/>
	<circle class="st0" cx="74.6" cy="24.6" r="2.5"/>
	<circle class="st0" cx="4.6" cy="34.6" r="2.5"/>
	<circle class="st0" cx="14.6" cy="34.6" r="2.5"/>
	<circle class="st0" cx="24.6" cy="34.6" r="2.5"/>
	<circle class="st0" cx="34.6" cy="34.6" r="2.5"/>
	<circle class="st0" cx="44.6" cy="34.6" r="2.5"/>
	<circle class="st0" cx="54.6" cy="34.6" r="2.5"/>
	<circle class="st0" cx="64.6" cy="34.6" r="2.5"/>
	<circle class="st0" cx="74.6" cy="34.6" r="2.5"/>
	<circle class="st0" cx="4.6" cy="44.6" r="2.5"/>
	<circle class="st0" cx="14.6" cy="44.6" r="2.5"/>
	<circle class="st0" cx="24.6" cy="44.6" r="2.5"/>
	<circle class="st0" cx="34.6" cy="44.6" r="2.5"/>
	<circle class="st0" cx="44.6" cy="44.6" r="2.5"/>
	<circle class="st0" cx="54.6" cy="44.6" r="2.5"/>
	<circle class="st0" cx="64.6" cy="44.6" r="2.5"/>
	<circle class="st0" cx="74.6" cy="44.6" r="2.5"/>
	<circle class="st0" cx="4.6" cy="54.6" r="2.5"/>
	<circle class="st0" cx="14.6" cy="54.6" r="2.5"/>
	<circle class="st0" cx="24.6" cy="54.6" r="2.5"/>
	<circle class="st0" cx="34.6" cy="54.6" r="2.5"/>
	<circle class="st0" cx="44.6" cy="54.6" r="2.5"/>
	<circle class="st0" cx="54.6" cy="54.6" r="2.5"/>
	<circle class="st0" cx="64.6" cy="54.6" r="2.5"/>
	<circle class="st0" cx="74.6" cy="54.6" r="2.5"/>
	<circle class="st0" cx="4.6" cy="64.6" r="2.5"/>
	<circle class="st0" cx="14.6" cy="64.6" r="2.5"/>
	<circle class="st0" cx="24.6" cy="64.6" r="2.5"/>
	<circle class="st0" cx="34.6" cy="64.6" r="2.5"/>
	<circle class="st0" cx="44.6" cy="64.6" r="2.5"/>
	<circle class="st0" cx="54.6" cy="64.6" r="2.5"/>
	<circle class="st0" cx="64.6" cy="64.6" r="2.5"/>
	<circle class="st0" cx="74.6" cy="64.6" r="2.5"/>
	<circle class="st0" cx="4.6" cy="74.6" r="2.5"/>
	<circle class="st0" cx="14.6" cy="74.6" r="2.5"/>
	<circle class="st0" cx="24.6" cy="74.6" r="2.5"/>
	<circle class="st0" cx="34.6" cy="74.6" r="2.5"/>
	<circle class="st0" cx="44.6" cy="74.6" r="2.5"/>
	<circle class="st0" cx="54.6" cy="74.6" r="2.5"/>
	<circle class="st0" cx="64.6" cy="74.6" r="2.5"/>
	<circle class="st0" cx="74.6" cy="74.6" r="2.5"/>
</g>
</svg>
