<?xml version="1.0" encoding="utf-8"?>
<!-- Generator: Adobe Illustrator 27.3.1, SVG Export Plug-In . SVG Version: 6.00 Build 0)  -->
<svg version="1.1" id="Layer_1" xmlns="http://www.w3.org/2000/svg" xmlns:xlink="http://www.w3.org/1999/xlink" x="0px" y="0px"
	 viewBox="0 0 512 512" style="enable-background:new 0 0 512 512;" xml:space="preserve">
<style type="text/css">
	.st0{fill-rule:evenodd;clip-rule:evenodd;}
</style>
<path d="M0,0v512h512V0H0z M489.5,489.5H22.5V22.5h466.9L489.5,489.5L489.5,489.5z"/>
<g id="Layer_1_00000121244814446805832810000008010305728184145839_">
</g>
<g>
	<path class="st0" d="M234.9,367.9l-20.6-64.5h-72.2l-19.6,64.5H79.7l72.9-227.5h53l73.9,227.5H234.9z M166.4,216l-17.5,56h58.4
		l-17.9-56c-3.6-11.2-6.7-23.5-9.5-34.8c-0.7-2.7-1.3-5.2-2-7.8h-0.7c-1.2,4.5-2.3,9.3-3.5,14.3C171.4,197.2,169.1,207.1,166.4,216z
		"/>
	<path class="st0" d="M432.3,279.8c0,7.8-0.7,13.8-1.3,17.5H321c1,29.7,24.3,42.5,50.6,42.5c19.2,0,33.1-2.7,45.6-7.4l6.1,28.7
		c-14.2,5.7-33.7,10.5-57.4,10.5c-53.3,0-84.7-33.1-84.7-83.4c0-45.6,27.7-88.4,80.3-88.4C415.1,199.8,432.3,243.7,432.3,279.8z
		 M359.1,228.2c-25.6,0-36.4,23.3-38.1,40.2h72.2C393.5,253.1,386.8,228.2,359.1,228.2z"/>
</g>
</svg>
