<?xml version="1.0" encoding="utf-8"?>
<!-- Generator: Adobe Illustrator 27.3.1, SVG Export Plug-In . SVG Version: 6.00 Build 0)  -->
<svg version="1.1" id="Layer_1" xmlns="http://www.w3.org/2000/svg" xmlns:xlink="http://www.w3.org/1999/xlink" x="0px" y="0px"
	 viewBox="0 0 512 512" style="enable-background:new 0 0 512 512;" xml:space="preserve">
<style type="text/css">
	.st0{fill-rule:evenodd;clip-rule:evenodd;}
</style>
<path d="M0,0v512h512V0H0z M489.5,489.5H22.5V22.5h466.9L489.5,489.5L489.5,489.5z"/>
<g id="Layer_1_00000121244814446805832810000008010305728184145839_">
</g>
<g>
	<path d="M370.7,207.3v166.9h-42.5V207.3H370.7z"/>
	<path d="M325.8,160.7c0-13,9.6-23,23.6-23c14.4,0,23.3,9.9,23.6,23c0,12.7-9.3,22.6-24,22.6C335,183.3,325.8,173.4,325.8,160.7z"/>
	<path class="st0" d="M267.9,374.2L247,308.8h-73.3l-19.9,65.5h-43.5l74-231h53.8l75.1,231H267.9z M198.3,220l-17.8,56.9h59.3
		L221.6,220c-3.6-11.4-6.8-23.9-9.7-35.3c-0.7-2.7-1.3-5.3-2-7.9h-0.7c-1.2,4.6-2.3,9.5-3.5,14.5C203.4,201,201,211,198.3,220z"/>
</g>
</svg>
