<?xml version="1.0" encoding="utf-8"?>
<!-- Generator: Adobe Illustrator 27.3.1, SVG Export Plug-In . SVG Version: 6.00 Build 0)  -->
<svg version="1.1" id="Layer_1" xmlns="http://www.w3.org/2000/svg" xmlns:xlink="http://www.w3.org/1999/xlink" x="0px" y="0px"
	 viewBox="0 0 512 512" style="enable-background:new 0 0 512 512;" xml:space="preserve">
<path d="M0,25v462c0,13.8,11.2,25,25,25h462c13.8,0,25-11.2,25-25V25c0-13.8-11.2-25-25-25H25C11.2,0,0,11.2,0,25z M489.5,489.5
	H47.5c-13.8,0-25-11.2-25-25V47.6c0-13.8,11.2-25,25-25h416.9c13.8,0,25,11.2,25,25L489.5,489.5L489.5,489.5z"/>
<g id="Layer_1_00000121244814446805832810000008010305728184145839_">
</g>
<g>
	<path d="M133.8,163.4l67.7,68.3c0,0,10.5,12.3,3.4,25.4c0,0-0.6,2.6,3.4-1.2s91.6-92.4,91.6-92.4l-83.1-82.8L133.8,163.4z"/>
	<polygon points="133.8,348.6 309,173 392.5,255.6 217.1,431.4 	"/>
</g>
</svg>
